<svg xmlns="http://www.w3.org/2000/svg" xmlns:xlink="http://www.w3.org/1999/xlink" viewBox="0 0 360 123"><defs><style>.cls-1{fill:url(#linear-gradient);}.cls-2{fill:url(#linear-gradient-2);}.cls-3{fill:url(#linear-gradient-3);}.cls-4{fill:url(#linear-gradient-4);}.cls-5{fill:url(#linear-gradient-5);}.cls-6{fill:url(#linear-gradient-6);}.cls-7{fill:url(#linear-gradient-7);}.cls-8{fill:url(#linear-gradient-8);}.cls-9{fill:url(#linear-gradient-9);}.cls-10{fill:url(#linear-gradient-10);}.cls-11{fill:url(#linear-gradient-11);}.cls-12{fill:url(#linear-gradient-12);}.cls-13{fill:url(#linear-gradient-13);}.cls-14{fill:url(#linear-gradient-14);}.cls-15{fill:url(#linear-gradient-15);}.cls-16{fill:url(#linear-gradient-16);}.cls-17{fill:url(#linear-gradient-17);}.cls-18{fill:url(#linear-gradient-18);}.cls-19{fill:url(#linear-gradient-19);}.cls-20{fill:url(#linear-gradient-20);}.cls-21{fill:url(#linear-gradient-21);}</style><linearGradient id="linear-gradient" y1="77.86" x2="59.58" y2="77.86" gradientUnits="userSpaceOnUse"><stop offset="0" stop-color="#b3b4b6"/><stop offset="0.44" stop-color="#d3d2d2"/><stop offset="1" stop-color="#848180"/></linearGradient><linearGradient id="linear-gradient-2" x1="29.53" y1="33.95" x2="29.53" y2="123" xlink:href="#linear-gradient"/><linearGradient id="linear-gradient-3" x1="80.18" y1="67.48" x2="138.14" y2="67.48" xlink:href="#linear-gradient"/><linearGradient id="linear-gradient-4" x1="108.51" y1="33.47" x2="108.51" y2="100.45" xlink:href="#linear-gradient"/><linearGradient id="linear-gradient-5" x1="140" y1="58.12" x2="197.04" y2="58.12" xlink:href="#linear-gradient"/><linearGradient id="linear-gradient-6" x1="167.81" y1="16.11" x2="167.81" y2="99.13" xlink:href="#linear-gradient"/><linearGradient id="linear-gradient-7" x1="305" y1="66.96" x2="360" y2="66.96" gradientUnits="userSpaceOnUse"><stop offset="0" stop-color="#8dbf45"/><stop offset="1" stop-color="#119839"/></linearGradient><linearGradient id="linear-gradient-8" x1="333" y1="33.66" x2="333" y2="99.13" xlink:href="#linear-gradient-7"/><linearGradient id="linear-gradient-9" x1="61" y1="67.48" x2="78" y2="67.48" xlink:href="#linear-gradient"/><linearGradient id="linear-gradient-10" x1="69" y1="23.34" x2="69" y2="95.08" xlink:href="#linear-gradient"/><linearGradient id="linear-gradient-11" x1="292.5" y1="34.79" x2="292.5" y2="100.17" xlink:href="#linear-gradient-7"/><linearGradient id="linear-gradient-12" x1="292" y1="34.79" x2="292" y2="99.13" xlink:href="#linear-gradient-7"/><linearGradient id="linear-gradient-13" x1="220.41" y1="83.28" x2="220.41" y2="83.28" gradientUnits="userSpaceOnUse"><stop offset="0" stop-color="#d4ac35"/><stop offset="0.01" stop-color="#d5ae37"/><stop offset="0.33" stop-color="#eecc58"/><stop offset="0.51" stop-color="#f7d865"/><stop offset="0.63" stop-color="#f4d462"/><stop offset="0.74" stop-color="#eac958"/><stop offset="0.84" stop-color="#dab748"/><stop offset="0.91" stop-color="#cca73b"/></linearGradient><linearGradient id="linear-gradient-14" x1="240.55" y1="67.48" x2="281.31" y2="67.48" xlink:href="#linear-gradient-7"/><linearGradient id="linear-gradient-15" x1="260.86" y1="34.79" x2="260.86" y2="99.13" xlink:href="#linear-gradient-7"/><linearGradient id="linear-gradient-16" x1="236.13" y1="0.43" x2="236.13" y2="100.17" xlink:href="#linear-gradient-7"/><linearGradient id="linear-gradient-17" x1="192.13" y1="49.57" x2="280.89" y2="49.57" xlink:href="#linear-gradient-7"/><linearGradient id="linear-gradient-18" x1="61" y1="25.45" x2="78" y2="25.45" xlink:href="#linear-gradient"/><linearGradient id="linear-gradient-19" x1="69" y1="23.35" x2="69" y2="96.46" xlink:href="#linear-gradient"/><linearGradient id="linear-gradient-20" x1="284" y1="25.45" x2="301" y2="25.45" xlink:href="#linear-gradient-7"/><linearGradient id="linear-gradient-21" x1="292" y1="19.22" x2="292" y2="32.71" xlink:href="#linear-gradient-7"/></defs><title>pickwin_logo</title><g id="Layer_2" data-name="Layer 2"><g id="katman_1" data-name="katman 1"><path class="cls-1" d="M0,123V62.46C0,51.06,3.3,43.15,9.82,39a38.27,38.27,0,0,1,21-6.23,33.25,33.25,0,0,1,12,2.32,22.6,22.6,0,0,1,9.67,6.8c4.73,6.36,7.12,14.58,7.12,24.46,0,10.2-2.39,18.58-7.1,24.92s-10.94,9.38-18.38,9.38a23.66,23.66,0,0,1-10.49-2.22A17.93,17.93,0,0,1,17,92.47v21.74a8.66,8.66,0,0,1-2.5,6.21,8.1,8.1,0,0,1-6,2.59ZM28.78,48.58a10.52,10.52,0,0,0-9.26,4.8c-2.08,2.93-3.14,7.67-3.14,14.09,0,5.93,1.13,10.42,3.35,13.34a10.75,10.75,0,0,0,9.51,4.82,10.32,10.32,0,0,0,9-4.8c2.24-3.25,3.37-7.75,3.37-13.37,0-6.1-1.13-10.84-3.37-14.09A10.74,10.74,0,0,0,28.78,48.58Z"/><path class="cls-2" d="M16,114.82a8,8,0,0,1-2.35,5.78A7.63,7.63,0,0,1,8,123H0V63.07q0-16.84,9.65-23a38.27,38.27,0,0,1,20.94-6.14,33.23,33.23,0,0,1,11.88,2.29A22.16,22.16,0,0,1,52,42.85q7.06,9.39,7.06,24.07,0,15.16-7.06,24.55-7.06,9.15-18.12,9.15a23.46,23.46,0,0,1-10.35-2.17A17.89,17.89,0,0,1,16,91ZM42.23,67.47q0-9.39-3.48-14.44a11.38,11.38,0,0,0-10-5.05A11.16,11.16,0,0,0,19,53q-3.25,4.57-3.25,14.44,0,9.15,3.48,13.72a11.37,11.37,0,0,0,10,5.05,11,11,0,0,0,9.51-5.05Q42.23,76.13,42.23,67.47Z"/><path class="cls-3" d="M109.19,101.85c-9.06,0-16.25-3.11-21.35-9.23-5.08-5.93-7.66-14.51-7.66-25.5,0-10.5,2.5-18.84,7.42-24.77,5.11-6.13,12.29-9.23,21.35-9.23,9.52,0,17,3,22.28,9a34.74,34.74,0,0,1,6.24,12.68l.21.78H120.1l-.16-.34a13.92,13.92,0,0,0-2.24-3.5c-1.93-2.15-4.7-3.23-8.27-3.23a10.71,10.71,0,0,0-8,3.23c-2.68,3.1-4.05,8.37-4.05,15.65s1.37,12.47,4.06,15.42c1.93,2.47,4.86,3.71,8.73,3.71a12.4,12.4,0,0,0,6.51-1.62l.05,0,.06,0a2.65,2.65,0,0,0,1.06-.7l1.25-1.3a11.4,11.4,0,0,1,2-2,6.89,6.89,0,0,1,4.61-1.36h12.51l-.2.77c-1.75,6.94-5.15,12.3-10.09,15.94C122.93,99.92,116.65,101.85,109.19,101.85Z"/><path class="cls-4" d="M124.94,79.41h11.65Q134,89.57,126.8,94.89q-7.22,5.57-18.17,5.56-13.28,0-20.74-8.95Q80.43,82.8,80.43,66.6q0-15.47,7.22-24.18,7.45-8.94,20.74-8.95,14,0,21.67,8.71a33.67,33.67,0,0,1,6.06,12.33H119.81a14.31,14.31,0,0,0-2.33-3.63q-3-3.38-8.62-3.39a11.14,11.14,0,0,0-8.39,3.39q-4.19,4.84-4.19,16t4.19,15.72q3,3.87,9.09,3.87a12.8,12.8,0,0,0,6.76-1.69,3.22,3.22,0,0,0,1.28-.85l1.28-1.33a10.47,10.47,0,0,1,1.86-1.93A6.27,6.27,0,0,1,124.94,79.41Z"/><path class="cls-5" d="M176.05,100.17l-11.56-22c-2.37-4.42-3.95-5.35-4.85-5.35a1.32,1.32,0,0,0-.47.09C157,73.7,157,74.83,157,75.2v25H140V16.11h8.73c2.5-.19,4.65.52,5.84,2.59s2.43,3.73,2.43,6V57.4l18.9-22.61H197l-22.7,25.3,22.61,40.08Z"/><path class="cls-6" d="M156,34.94V58.49l19.81-23.7h19.58L173.25,59.46l22.38,39.67h-20l-11.2-21.72q-3.43-6.52-5.94-5.55T156,74.76V99.13H140v-83h8.23a7.3,7.3,0,0,1,5.49,2.41A7.85,7.85,0,0,1,156,24.07Z"/><path class="cls-7" d="M351.31,100.17a7.88,7.88,0,0,1-6-2.47A8.87,8.87,0,0,1,343,91.38V58.64c0-3.63-1-6.3-3.07-7.94a11,11,0,0,0-7-2.52A10.57,10.57,0,0,0,326,50.7c-2,1.66-3,4.26-3,7.95v41.53H305v-38c0-11,2.86-18.54,8.5-22.32A35.93,35.93,0,0,1,332,33.75h0a34.84,34.84,0,0,1,19.13,5.6C357,43.14,360,50.81,360,62.17v38Z"/><path class="cls-8" d="M360,99.13h-8a7.76,7.76,0,0,1-5.8-2.29,8,8,0,0,1-2.25-5.9V58.21q0-5.78-3.43-8.42a12.28,12.28,0,0,0-7.69-2.65,11.79,11.79,0,0,0-7.57,2.65Q322,52.44,322,58.21V99.13H306V61.58q0-16.36,8.26-21.9a35.3,35.3,0,0,1,18.27-6,34.19,34.19,0,0,1,18.85,5.54Q360,44.74,360,61.58Z"/><rect class="cls-9" x="61" y="34.79" width="17" height="65.38"/><polygon class="cls-10" points="61 34.79 61 99.13 77 99.13 77 34.79 69.23 34.79 61 34.79"/><rect class="cls-11" x="284" y="34.79" width="17" height="65.38"/><polygon class="cls-12" points="292.23 34.79 284 34.79 284 99.13 300 99.13 300 34.79 292.23 34.79"/><path class="cls-13" d="M220.41,83.28"/><path class="cls-14" d="M246.83,100.17,240.55,70l.09-.19c2.68-5.71,5.55-11.41,8.52-16.93l.77-1.43L255,76.91l9.26-42.12h17L264,100.17Z"/><path class="cls-15" d="M255,79.3l-5.31-26.69q-4.5,8.38-8.53,17l6.15,29.57h16.32l17-64.34H264.75Z"/><path class="cls-16" d="M209,100.17l-.14-.41A434.08,434.08,0,0,0,191.6,56.43l-.22-.48,10.16-6.8.32.52C206,56.44,214.15,70.51,218.59,79c4.17-7.85,8.8-15.64,13.78-23.16,13.43-20.28,30-38.61,48.52-55.39h0c-13.6,17.51-25.15,36.61-35.25,56a353,353,0,0,0-19,43.32l-.14.4Z"/><path class="cls-17" d="M232.85,55.74a277.49,277.49,0,0,0-14.27,24.09c-4.22-8.16-12.88-23.14-17.23-30.26l-9.23,6.17A432.5,432.5,0,0,1,209.4,99.13h16.72a352.34,352.34,0,0,1,19-43.39A367.12,367.12,0,0,1,280.89,0,295.73,295.73,0,0,0,232.85,55.74Z"/><path class="cls-18" d="M61,32.71V18.19h8.73a7.77,7.77,0,0,1,5.84,2.6A8.86,8.86,0,0,1,78,27v5.69Z"/><path class="cls-19" d="M61,19.22h8.23a7.25,7.25,0,0,1,5.49,2.45A8.35,8.35,0,0,1,77,27.56v5.15H61Z"/><path class="cls-20" d="M284,32.71V18.19h8.73a7.76,7.76,0,0,1,5.84,2.6A8.86,8.86,0,0,1,301,27v5.69Z"/><path class="cls-21" d="M284,19.22h8.23a7.25,7.25,0,0,1,5.49,2.45A8.35,8.35,0,0,1,300,27.56v5.15H284Z"/></g></g></svg>