<svg id="Layer_1" data-name="Layer 1" xmlns="http://www.w3.org/2000/svg" viewBox="0 0 319 79.88"><defs><style>.cls-1{fill:none;}.cls-2,.cls-4{fill:#8a8a8d;}.cls-3,.cls-9{fill:#4c8b2b;}.cls-4,.cls-7,.cls-9{isolation:isolate;}.cls-4,.cls-9{font-size:10px;font-family:Lato-Bold, Lato;font-weight:700;}.cls-5{letter-spacing:-0.02em;}.cls-6{letter-spacing:-0.02em;}.cls-8{letter-spacing:-0.01em;}</style></defs><title>Artboard 1</title><g id="ic_home" data-name="ic home"><polygon id="Bounds" class="cls-1" points="2.26 -0.63 26.26 -0.63 26.26 23.37 2.26 23.37 2.26 -0.63"/><path id="Combined-Shape" class="cls-2" d="M7.72,11.72,14.26,7l6.53,4.71v6.53A1.8,1.8,0,0,1,19,20H9.52a1.8,1.8,0,0,1-1.8-1.8ZM23.88,9.32a.9.9,0,0,1,.2,1.25l-.34.47a.89.89,0,0,1-.82.35L14.26,5.14h0L5.59,11.4A.9.9,0,0,1,4.76,11l-.34-.47a.9.9,0,0,1,.2-1.25l8.88-6.4.73-.54h0l.74.54,2.37,1.71c.4.29.73.12.73-.38V3.31a.9.9,0,0,1,.9-.9h.84a.9.9,0,0,1,.9.9V6.16a2,2,0,0,0,.72,1.42Z"/></g><g id="ic_home-2" data-name="ic home"><polygon id="Bounds-2" data-name="Bounds" class="cls-1" points="2.26 44.7 26.26 44.7 26.26 68.7 2.26 68.7 2.26 44.7"/><path id="Combined-Shape-2" data-name="Combined-Shape" class="cls-3" d="M7.72,57.06l6.53-4.71,6.53,4.71v6.53a1.8,1.8,0,0,1-1.8,1.8H9.52a1.8,1.8,0,0,1-1.8-1.8Zm16.16-2.41a.9.9,0,0,1,.2,1.25l-.34.47a.89.89,0,0,1-.82.35l-8.67-6.25h0L5.59,56.73a.9.9,0,0,1-.82-.35l-.34-.47a.9.9,0,0,1,.2-1.25l8.88-6.4.73-.54h0l.74.54L17.38,50c.4.29.73.12.73-.38v-.95a.9.9,0,0,1,.9-.9h.84a.9.9,0,0,1,.9.9v2.85a2,2,0,0,0,.72,1.42Z"/></g><g id="Lobby"><text class="cls-4" transform="translate(-0.1 33.37)"><tspan class="cls-5">L</tspan><tspan x="4.98" y="0">ob</tspan><tspan class="cls-6" x="16.36" y="0">b</tspan><tspan x="21.9" y="0">y</tspan></text></g><g id="ic_receipt" data-name="ic receipt"><polygon id="Bounds-3" data-name="Bounds" class="cls-1" points="74.26 -0.63 98.26 -0.63 98.26 23.37 74.26 23.37 74.26 -0.63"/><path id="Combined-Shape-3" data-name="Combined-Shape" class="cls-2" d="M86.12,5.32A5.91,5.91,0,1,0,92,11.23a5.91,5.91,0,0,0-5.91-5.91m0,14.76A8.86,8.86,0,1,1,95,11.23,8.87,8.87,0,0,1,86.12,20.08Zm3.61-8.86a3.61,3.61,0,1,0-3.61,3.61A3.61,3.61,0,0,0,89.72,11.23Z"/></g><g id="Quinielas" class="cls-7"><text class="cls-4" transform="translate(64.07 33.37)">Quinielas</text></g><g id="ic_visibility_off" data-name="ic visibility off"><polygon id="Bounds-4" data-name="Bounds" class="cls-1" points="146.26 -0.63 170.26 -0.63 170.26 23.37 146.26 23.37 146.26 -0.63"/><path id="Fill-1" class="cls-2" d="M164,8.37a4.36,4.36,0,0,1,3.24,4.2v4.87a4.37,4.37,0,0,1-4.36,4.36h-9.28a4.37,4.37,0,0,1-4.36-4.36V12.57a4.37,4.37,0,0,1,3.24-4.21c.22-3.92,2.71-7,5.76-7S163.8,4.46,164,8.37Zm-9.09-.16h6.66C161.44,5.87,160,4,158.26,4S155.08,5.86,154.93,8.22Zm4.39,7.64a2.5,2.5,0,1,0-2.11,0v1.4c0,1.2.47,2.18,1.06,2.18s1.05-1,1.05-2.17Z"/></g><g id="Privadas" class="cls-7"><text class="cls-4" transform="translate(137.82 33.37)">Privadas</text></g><g id="ic_account_circle" data-name="ic account circle"><polygon id="Bounds-5" data-name="Bounds" class="cls-1" points="218.26 -0.63 242.26 -0.63 242.26 23.37 218.26 23.37 218.26 -0.63"/><path id="Icon" class="cls-2" d="M230.26,1.37a10,10,0,1,0,10,10,10,10,0,0,0-10-10Zm0,3a3,3,0,1,1-3,3,3,3,0,0,1,3-3Zm0,14.2a7.2,7.2,0,0,1-6-3.22c0-2,4-3.08,6-3.08s6,1.09,6,3.08a7.2,7.2,0,0,1-6,3.22Z"/></g><g id="Perfil" class="cls-7"><text class="cls-4" transform="translate(218.29 33.37)"><tspan class="cls-8">P</tspan><tspan x="6.1" y="0">erfil</tspan></text></g><g id="ic_monetization_on-copy-2" data-name="ic monetization on-copy-2"><polygon id="Bounds-6" data-name="Bounds" class="cls-1" points="290.26 -0.63 314.26 -0.63 314.26 23.37 290.26 23.37 290.26 -0.63"/><path id="Combined-Shape-4" data-name="Combined-Shape" class="cls-2" d="M292.26,11.37a10,10,0,1,1,10,10A10,10,0,0,1,292.26,11.37Zm11.33,7V17h1.33a1.37,1.37,0,0,0,1.33-1.4v-4.2a1.37,1.37,0,0,0-1.33-1.4h-4V8.57h5.33V5.77h-2.67V4.37h-2.67v1.4h-1.33a1.37,1.37,0,0,0-1.33,1.4v4.2a1.37,1.37,0,0,0,1.33,1.4h4v1.4h-5.33V17h2.67v1.4Z"/></g><g id="Abonar" class="cls-7"><text class="cls-4" transform="translate(285.61 33.37)">Abonar</text></g><g id="Lobby-2" data-name="Lobby" class="cls-7"><text class="cls-9" transform="translate(-0.1 78.7)"><tspan class="cls-5">L</tspan><tspan x="4.98" y="0">ob</tspan><tspan class="cls-6" x="16.36" y="0">b</tspan><tspan x="21.9" y="0">y</tspan></text></g><g id="ic_receipt-2" data-name="ic receipt"><polygon id="Bounds-7" data-name="Bounds" class="cls-1" points="74.26 44.7 98.26 44.7 98.26 68.7 74.26 68.7 74.26 44.7"/><path id="Combined-Shape-5" data-name="Combined-Shape" class="cls-3" d="M86.12,50.65A5.91,5.91,0,1,0,92,56.56a5.91,5.91,0,0,0-5.91-5.91m0,14.76A8.86,8.86,0,1,1,95,56.56,8.87,8.87,0,0,1,86.12,65.42Zm3.61-8.86a3.61,3.61,0,1,0-3.61,3.61A3.61,3.61,0,0,0,89.72,56.56Z"/></g><g id="Quinielas-2" data-name="Quinielas"><text class="cls-9" transform="translate(64.07 78.7)">Quinielas</text></g><g id="ic_visibility_off-2" data-name="ic visibility off"><polygon id="Bounds-8" data-name="Bounds" class="cls-1" points="146.26 44.7 170.26 44.7 170.26 68.7 146.26 68.7 146.26 44.7"/><path id="Fill-1-2" data-name="Fill-1" class="cls-3" d="M164,53.71a4.36,4.36,0,0,1,3.24,4.2v4.87a4.37,4.37,0,0,1-4.36,4.36h-9.28a4.37,4.37,0,0,1-4.36-4.36V57.91a4.37,4.37,0,0,1,3.24-4.21c.22-3.92,2.71-7,5.76-7S163.8,49.79,164,53.71Zm-9.09-.16h6.66c-.15-2.36-1.58-4.2-3.33-4.21S155.08,51.19,154.93,53.55Zm4.39,7.64a2.5,2.5,0,1,0-2.11,0v1.4c0,1.2.47,2.18,1.06,2.18s1.05-1,1.05-2.17Z"/></g><g id="Privadas-2" data-name="Privadas"><text class="cls-9" transform="translate(137.82 78.7)">Privadas</text></g><g id="ic_account_circle-2" data-name="ic account circle"><polygon id="Bounds-9" data-name="Bounds" class="cls-1" points="218.26 44.7 242.26 44.7 242.26 68.7 218.26 68.7 218.26 44.7"/><path id="Icon-2" data-name="Icon" class="cls-3" d="M230.26,46.7a10,10,0,1,0,10,10,10,10,0,0,0-10-10Zm0,3a3,3,0,1,1-3,3,3,3,0,0,1,3-3Zm0,14.2a7.2,7.2,0,0,1-6-3.22c0-2,4-3.08,6-3.08s6,1.09,6,3.08a7.2,7.2,0,0,1-6,3.22Z"/></g><g id="Perfil-2" data-name="Perfil"><text class="cls-9" transform="translate(218.29 78.7)"><tspan class="cls-8">P</tspan><tspan x="6.1" y="0">erfil</tspan></text></g><g id="ic_monetization_on-copy-2-2" data-name="ic monetization on-copy-2"><polygon id="Bounds-10" data-name="Bounds" class="cls-1" points="290.26 44.7 314.26 44.7 314.26 68.7 290.26 68.7 290.26 44.7"/><path id="Combined-Shape-6" data-name="Combined-Shape" class="cls-3" d="M292.26,56.7a10,10,0,1,1,10,10A10,10,0,0,1,292.26,56.7Zm11.33,7V62.3h1.33a1.37,1.37,0,0,0,1.33-1.4V56.7a1.37,1.37,0,0,0-1.33-1.4h-4V53.9h5.33V51.1h-2.67V49.7h-2.67v1.4h-1.33a1.37,1.37,0,0,0-1.33,1.4v4.2a1.37,1.37,0,0,0,1.33,1.4h4v1.4h-5.33v2.8h2.67v1.4Z"/></g><g id="Abonar-2" data-name="Abonar"><text class="cls-9" transform="translate(285.61 78.7)">Abonar</text></g></svg>